<mxfile host="app.diagrams.net" modified="2024-05-31T07:05:55.884Z" agent="Mozilla/5.0 (Windows NT 10.0; Win64; x64) AppleWebKit/537.36 (KHTML, like Gecko) Chrome/124.0.0.0 Safari/537.36 OPR/110.0.0.0" etag="WTLAl5Ztd-UV7UE0h3Ni" version="24.4.10" type="device">
  <diagram id="R2lEEEUBdFMjLlhIrx00" name="Page-1">
    <mxGraphModel dx="996" dy="586" grid="1" gridSize="10" guides="1" tooltips="1" connect="1" arrows="1" fold="1" page="1" pageScale="1" pageWidth="850" pageHeight="1100" math="0" shadow="0" extFonts="Permanent Marker^https://fonts.googleapis.com/css?family=Permanent+Marker">
      <root>
        <mxCell id="0" />
        <mxCell id="1" parent="0" />
        <mxCell id="741olPrmWtS84tEL9VSt-27" value="" style="endArrow=none;html=1;rounded=0;exitX=0.911;exitY=-0.032;exitDx=0;exitDy=0;exitPerimeter=0;entryX=0.159;entryY=1.043;entryDx=0;entryDy=0;entryPerimeter=0;" edge="1" parent="1" source="741olPrmWtS84tEL9VSt-47" target="741olPrmWtS84tEL9VSt-46">
          <mxGeometry relative="1" as="geometry">
            <mxPoint x="316.6600000000001" y="362.15999999999997" as="sourcePoint" />
            <mxPoint x="360" y="210" as="targetPoint" />
          </mxGeometry>
        </mxCell>
        <mxCell id="741olPrmWtS84tEL9VSt-37" value="1" style="text;html=1;align=center;verticalAlign=middle;resizable=0;points=[];autosize=1;strokeColor=none;fillColor=none;" vertex="1" parent="1">
          <mxGeometry x="505" y="335" width="30" height="30" as="geometry" />
        </mxCell>
        <mxCell id="741olPrmWtS84tEL9VSt-38" value="0.*" style="text;html=1;align=center;verticalAlign=middle;resizable=0;points=[];autosize=1;strokeColor=none;fillColor=none;" vertex="1" parent="1">
          <mxGeometry x="600" y="340" width="40" height="30" as="geometry" />
        </mxCell>
        <mxCell id="741olPrmWtS84tEL9VSt-40" value="Article" style="swimlane;childLayout=stackLayout;horizontal=1;startSize=50;horizontalStack=0;rounded=1;fontSize=14;fontStyle=0;strokeWidth=2;resizeParent=0;resizeLast=1;shadow=0;dashed=0;align=center;arcSize=4;whiteSpace=wrap;html=1;fillColor=#e1d5e7;strokeColor=#9673a6;" vertex="1" parent="1">
          <mxGeometry x="40" y="240" width="180" height="160" as="geometry" />
        </mxCell>
        <mxCell id="741olPrmWtS84tEL9VSt-41" value="- id int&lt;div&gt;- description Text&amp;nbsp;&lt;/div&gt;&lt;div&gt;- categorie Enum&lt;/div&gt;&lt;div&gt;- taille string&lt;/div&gt;&lt;div&gt;- prix double&lt;/div&gt;&lt;div&gt;- quantiteStock int&lt;/div&gt;" style="align=left;strokeColor=none;fillColor=none;spacingLeft=4;fontSize=12;verticalAlign=top;resizable=0;rotatable=0;part=1;html=1;" vertex="1" parent="741olPrmWtS84tEL9VSt-40">
          <mxGeometry y="50" width="180" height="110" as="geometry" />
        </mxCell>
        <mxCell id="741olPrmWtS84tEL9VSt-43" value="Client" style="swimlane;childLayout=stackLayout;horizontal=1;startSize=50;horizontalStack=0;rounded=1;fontSize=14;fontStyle=0;strokeWidth=2;resizeParent=0;resizeLast=1;shadow=0;dashed=0;align=center;arcSize=4;whiteSpace=wrap;html=1;fillColor=#e1d5e7;strokeColor=#9673a6;" vertex="1" parent="1">
          <mxGeometry x="640" y="260" width="180" height="180" as="geometry" />
        </mxCell>
        <mxCell id="741olPrmWtS84tEL9VSt-44" value="- id int&lt;div&gt;- nom string&lt;/div&gt;&lt;div&gt;- email string&lt;/div&gt;&lt;div&gt;- historiqueAchat List&amp;lt;Vente&amp;gt;&lt;/div&gt;" style="align=left;strokeColor=none;fillColor=none;spacingLeft=4;fontSize=12;verticalAlign=top;resizable=0;rotatable=0;part=1;html=1;" vertex="1" parent="741olPrmWtS84tEL9VSt-43">
          <mxGeometry y="50" width="180" height="130" as="geometry" />
        </mxCell>
        <mxCell id="741olPrmWtS84tEL9VSt-45" value="Vente" style="swimlane;childLayout=stackLayout;horizontal=1;startSize=50;horizontalStack=0;rounded=1;fontSize=14;fontStyle=0;strokeWidth=2;resizeParent=0;resizeLast=1;shadow=0;dashed=0;align=center;arcSize=4;whiteSpace=wrap;html=1;fillColor=#e1d5e7;strokeColor=#9673a6;" vertex="1" parent="1">
          <mxGeometry x="375" y="220" width="160" height="120" as="geometry" />
        </mxCell>
        <mxCell id="741olPrmWtS84tEL9VSt-46" value="- id int&lt;div&gt;- etatVente Enum&lt;/div&gt;&lt;div&gt;- id_client int&lt;/div&gt;" style="align=left;strokeColor=none;fillColor=none;spacingLeft=4;fontSize=12;verticalAlign=top;resizable=0;rotatable=0;part=1;html=1;" vertex="1" parent="741olPrmWtS84tEL9VSt-45">
          <mxGeometry y="50" width="160" height="70" as="geometry" />
        </mxCell>
        <mxCell id="741olPrmWtS84tEL9VSt-47" value="vente_article" style="swimlane;childLayout=stackLayout;horizontal=1;startSize=50;horizontalStack=0;rounded=1;fontSize=14;fontStyle=0;strokeWidth=2;resizeParent=0;resizeLast=1;shadow=0;dashed=0;align=center;arcSize=4;whiteSpace=wrap;html=1;fillColor=#ffe6cc;strokeColor=#d79b00;" vertex="1" parent="1">
          <mxGeometry x="170" y="480" width="160" height="120" as="geometry" />
        </mxCell>
        <mxCell id="741olPrmWtS84tEL9VSt-48" value="- id_vente&lt;div&gt;- id_article&lt;/div&gt;" style="align=left;strokeColor=none;fillColor=none;spacingLeft=4;fontSize=12;verticalAlign=top;resizable=0;rotatable=0;part=1;html=1;" vertex="1" parent="741olPrmWtS84tEL9VSt-47">
          <mxGeometry y="50" width="160" height="70" as="geometry" />
        </mxCell>
        <mxCell id="741olPrmWtS84tEL9VSt-55" value="" style="endArrow=none;html=1;rounded=0;exitX=0.212;exitY=1.035;exitDx=0;exitDy=0;exitPerimeter=0;entryX=0.301;entryY=0.005;entryDx=0;entryDy=0;entryPerimeter=0;" edge="1" parent="1" source="741olPrmWtS84tEL9VSt-41" target="741olPrmWtS84tEL9VSt-47">
          <mxGeometry relative="1" as="geometry">
            <mxPoint x="130" y="260" as="sourcePoint" />
            <mxPoint x="210" y="350" as="targetPoint" />
          </mxGeometry>
        </mxCell>
        <mxCell id="741olPrmWtS84tEL9VSt-60" value="" style="endArrow=none;html=1;rounded=0;" edge="1" parent="1" source="741olPrmWtS84tEL9VSt-46">
          <mxGeometry relative="1" as="geometry">
            <mxPoint x="480" y="390" as="sourcePoint" />
            <mxPoint x="640" y="390" as="targetPoint" />
          </mxGeometry>
        </mxCell>
        <mxCell id="741olPrmWtS84tEL9VSt-61" value="SystÃ¨me de Gestion Inventaire" style="text;html=1;align=center;verticalAlign=middle;resizable=0;points=[];autosize=1;strokeColor=none;fillColor=none;fontSize=28;" vertex="1" parent="1">
          <mxGeometry x="220" y="40" width="410" height="50" as="geometry" />
        </mxCell>
      </root>
    </mxGraphModel>
  </diagram>
</mxfile>
